<?xml version="1.0" encoding="UTF-8"?>
<!DOCTYPE svg PUBLIC "-//W3C//DTD SVG 1.1//EN" "http://www.w3.org/Graphics/SVG/1.1/DTD/svg11.dtd">
<!-- Creator: CorelDRAW 2019 (64-Bit) -->
<svg xmlns="http://www.w3.org/2000/svg" xml:space="preserve" width="1025px" height="720px" version="1.1" style="shape-rendering:geometricPrecision; text-rendering:geometricPrecision; image-rendering:optimizeQuality; fill-rule:evenodd; clip-rule:evenodd"
viewBox="0 0 1025 720.35"
 xmlns:xlink="http://www.w3.org/1999/xlink"
 xmlns:xodm="http://www.corel.com/coreldraw/odm/2003">
 <defs>
  <style type="text/css">
   <![CDATA[
    .fil1 {fill:#1C252C}
    .fil0 {fill:#303E48}
   ]]>
  </style>
 </defs>
 <g id="Layer_x0020_1">
  <metadata id="CorelCorpID_0Corel-Layer"/>
  <polygon class="fil0" points="346.33,448.36 236.32,396.64 490.77,0 788.68,446.86 538.92,285.87 "/>
  <polygon class="fil1" points="538.92,285.87 346.33,448.36 327.51,365.62 500.92,157.23 "/>
  <polygon class="fil1" points="788.68,446.86 490.77,0 500.92,157.23 "/>
  <path class="fil0" d="M572.26 510.81l30.34 0 166.63 0 0 28.21 -166.63 0 0 22.2 162.49 0 0 28.21 -162.49 0 0 22.57 166.63 0 0 28.21 -166.63 0 -30.34 0c-9.38,0 -17.06,-7.68 -17.06,-17.06l0 -95.28c0,-9.38 7.68,-17.06 17.06,-17.06z"/>
  <polygon class="fil0" points="238.88,510.81 286.28,510.81 286.28,640.21 238.88,640.21 "/>
  <path class="fil0" d="M330.42 510.81l30.34 0 162.83 0 0 28.21 -162.83 0 0 72.98 119.43 0 0 -22.57 -60.19 0 0 -28.21 108.33 0 0 28.21 0 22.57 0 11.15c0,9.38 -7.67,17.06 -17.06,17.06l-150.51 0 -30.34 0 -3.8 -0.43c-7.57,-1.74 -13.26,-8.56 -13.26,-16.63l0 -95.28c0,-8.08 5.69,-14.89 13.26,-16.63l3.8 -0.43z"/>
  <path class="fil0" d="M791.99 510.81l169.95 0 27.02 0 1.99 0c8.98,0 16.32,7.35 16.32,16.32l0 46.35c0,8.98 -7.34,16.32 -16.32,16.32l-1.99 0 -5.96 0 42 50.41 -61.13 0 -41.99 -50.41 -82.5 0 0 50.41 -47.39 0 0 -50.41 0 -14.29 0 -13.92 169.95 0 0 -22.57 -169.95 0 0 -28.21z"/>
  <path class="fil0" d="M17.06 510.81l30.34 0 166.63 0 0 28.21 -166.63 0 0 22.2 162.49 0 0 28.21 -162.49 0 0 22.57 166.63 0 0 28.21 -166.63 0 -30.34 0c-9.38,0 -17.06,-7.68 -17.06,-17.06l0 -95.28c0,-9.38 7.68,-17.06 17.06,-17.06z"/>
  <path class="fil0" d="M90.7 696.85l9.6 23.4 -10.12 0 -8.86 -21.16 -12.5 0 0 21.17 -10.12 0 0 -21.17 0 -8.7 0 -15.97 0 -5.61 0 -2.7 28.43 0c14.41,0 15.87,25.21 3.57,30.74zm-21.88 -6.46l14.91 0c6.05,0 8.53,-15.97 1.4,-15.97l-16.31 0 0 15.97z"/>
  <path class="fil0" d="M209.07 700.69l-12.49 0 0.08 19.55 -10.12 0c-0.07,-18.05 0.02,-36.08 0.02,-54.13l29.32 0c13.11,0 21.37,34.37 -6.81,34.58zm-12.49 -8.2l15.76 -0.18c5.25,0 6.03,-3.91 6.09,-8.67 0,-0.12 0,-0.23 0,-0.35 0.02,-4.33 -0.92,-8.55 -4.78,-9.01 -0.2,-0.03 -0.4,-0.05 -0.6,-0.05l-16.47 0.19 0 18.07z"/>
  <polygon class="fil0" points="256.43,666.12 256.43,720.25 246.3,720.25 246.3,666.12 "/>
  <path class="fil0" d="M286.71 680.72l0 24.37c-0.12,3.63 1.83,4.64 5.46,4.64l15.2 0 0 10.52 -20.2 0c-6.87,0 -10.58,-6.81 -10.58,-13.01l0 -28.81c0,-6.17 3.43,-12.3 10.58,-12.3l20.2 0 0 9.31 -15.15 0c-4.11,-0.13 -5.83,1.82 -5.51,5.28z"/>
  <path class="fil0" d="M393.89 666.12l0 40.19c-0.06,3.07 1.87,3.52 5.51,3.52l10.79 0 0 10.42 -17.15 0c-4.98,0 -9.27,-5.54 -9.27,-10.42l0 -43.71 10.12 0z"/>
  <path class="fil0" d="M133.12 666.1l20.65 0c7.5,0 13.54,5.76 13.54,13.26l0 26.94c0,7.51 -6.14,13.96 -13.65,13.96l-20.64 0c-7.51,0 -13.65,-6.45 -13.65,-13.96l0 -26.94c0,-7.5 6.24,-13.26 13.75,-13.26zm4.04 7.19l12.35 0c4.5,0 8.17,3.67 8.17,8.16l0 22.76c0,4.5 -3.67,8.17 -8.17,8.17l-12.35 0c-4.49,0 -8.16,-3.67 -8.16,-8.17l0 -22.76c0,-4.49 3.67,-8.16 8.16,-8.16z"/>
  <path class="fil0" d="M343.03 666.12l5.34 0 0.23 0c2.43,0.12 5.02,2.35 5.82,4.77l16.42 49.38 -10.12 0 -5.05 -14.99 -19.95 0 -4.59 14.99 -10.12 0 15.96 -49.38c0.79,-2.43 3.39,-4.65 5.83,-4.77l0.23 0zm9.77 30.46l-6.16 -18.61c-0.63,-2.03 -1.26,-1.95 -1.9,0.03l-6.14 18.58 14.2 0z"/>
  <path class="fil0" d="M864.85 666.12l9.25 0 0 41.33c0,4.46 1.14,5.06 4.02,5.06l12.44 0c3.7,0 3.99,-1 3.99,-5.5l0 -40.89 9.46 0 0 44.11c0,5.24 -5.58,9.59 -10.7,10.07l-0.96 0.05 -15.91 0 -1.14 -0.07c-5.04,-0.57 -10.45,-4.87 -10.45,-10.05l0 -44.11z"/>
  <path class="fil0" d="M997.59 679.85l0 8.91 25.92 0 0 8.45 -25.92 0 0 10.56c-0.12,3.63 1.83,4.64 5.46,4.64l21.95 0 0 7.84 -26.95 0c-6.87,0 -10.58,-6.41 -10.58,-12.61l0 -28.81c0,-6.17 3.43,-12.71 10.58,-12.71l26.94 0 0 8.45 -21.89 0c-4.11,-0.12 -5.83,1.83 -5.51,5.28z"/>
  <path class="fil0" d="M752.63 675.28l0 3.31 0 41.66 -9.27 0 0 -41.66 0 -3.31c0,-5.04 3.2,-9.15 8.25,-9.15l0.61 0 0.41 0 1.54 0c1.22,0 2.38,0.27 3.43,0.76l0.16 0.08c2.2,1.08 3.85,3.13 4.39,5.58l0.14 0.47 0.02 0.02 1.78 7.04 9.23 31.27c1.07,1.62 3.08,0.59 3.08,-0.25l0 -2.35 0 -41.66 9.1 0 0 41.66 0 2.35c0,5.03 -3.69,9.15 -8.74,9.15l-0.61 0 -0.41 0 -1.54 0c-3.39,0 -6.31,-2.1 -7.54,-5.05l-0.08 -0.08 -0.21 -0.74 -0.02 -0.06 -11.16 -39.12c-0.89,-1.8 -2.56,-0.77 -2.56,0.08z"/>
  <path class="fil0" d="M552.65 666.14l8.88 0 21.44 0c7.14,0 10.58,7.6 10.58,13.77l0 27.73c0,6.2 -3.71,12.61 -10.58,12.61l-21.44 0 -8.88 0 0 -54.11zm8.88 9.7l0 34.29 17.4 0c3.63,0 5.58,-1.01 5.46,-4.64l0 -24.37c0.32,-3.46 -1.4,-5.41 -5.51,-5.28l-17.35 0z"/>
  <polygon class="fil0" points="805.41,666.12 820.26,666.12 830.38,666.12 845.22,666.12 845.22,676.24 830.38,676.24 830.38,720.35 820.26,720.35 820.26,676.24 805.41,676.24 "/>
  <path class="fil0" d="M957.69 697.25l9.32 23.1 -10.12 0 -8.59 -20.86 -12.49 0 0 20.86 -10.12 0 0 -20.86 0 -8.7 0 -15.97 0 -6 0 -2.7 28.42 0c14.41,0 15.87,25.6 3.58,31.13zm-21.88 -6.46l14.9 0c6.05,0 8.53,-15.97 1.41,-15.97l-16.31 0 0 15.97z"/>
  <path class="fil0" d="M638.93 710.58c0.64,2.03 1.27,1.95 1.9,-0.03l13.54 -44.43 10.12 0 -16.19 48.96c-0.8,2.42 -3.39,4.42 -5.82,4.54l-0.23 0 -5.34 0 -0.23 0c-2.44,-0.12 -5.02,-2.12 -5.83,-4.54l-16.18 -48.96 10.11 0 14.15 44.46z"/>
  <path class="fil0" d="M504.05 666.12l5.34 0 0.23 0c2.43,0.12 5.02,2.12 5.82,4.55l16.46 49.56 -10.12 0 -5.09 -15.17 -19.95 0 -4.54 15.17 -10.12 0 15.91 -49.56c0.78,-2.44 3.39,-4.43 5.83,-4.55l0.23 0zm9.77 30.24l-6.16 -18.61c-0.63,-2.03 -1.27,-1.95 -1.9,0.03l-6.14 18.58 14.2 0z"/>
  <polygon class="fil0" points="0,666.11 14.85,666.11 24.97,666.11 39.81,666.11 39.81,675.84 24.97,675.84 24.97,720.24 14.85,720.24 14.85,675.84 0,675.84 "/>
  <path class="fil0" d="M695.26 679.85l0 8.91 25.92 0 0 8.45 -25.92 0 0 10.56c-0.12,3.63 1.83,4.64 5.46,4.64l21.95 0 0 7.84 -26.95 0c-6.87,0 -10.58,-6.41 -10.58,-12.61l0 -28.81c0,-6.17 3.44,-12.71 10.58,-12.71l26.94 0 0 8.45 -21.89 0c-4.11,-0.12 -5.83,1.83 -5.51,5.28z"/>
 </g>
</svg>
